<?xml version="1.0" encoding="UTF-8" standalone="no"?><!-- Generator: Gravit.io --><svg xmlns="http://www.w3.org/2000/svg" xmlns:xlink="http://www.w3.org/1999/xlink" style="isolation:isolate" viewBox="0 0 225 225" width="225pt" height="225pt"><defs><clipPath id="_clipPath_hcjARS2FXj9Eg5qWjNK8bXv5Juh0d2oY"><rect width="225" height="225"/></clipPath></defs><g clip-path="url(#_clipPath_hcjARS2FXj9Eg5qWjNK8bXv5Juh0d2oY)"><path d=" M 64.5 82 L 68.5 89 L 68.5 99 L 66.5 111 L 68.5 119 L 72.5 128 L 75.5 140 L 77.5 153 L 77.5 167 L 80.5 177 L 80.5 192 L 77.5 198 L 77.5 202 L 83.5 202 L 88.5 198 L 86.5 194 L 88.5 190 L 89.5 182 L 88.5 177 L 88.5 172 L 89.5 160 L 91.5 172 L 93.5 180 L 93.5 188 L 91.5 195 L 89.5 202 Q 91.75 202 93.5 202 Q 95.25 202 98.5 202 L 100.5 198 L 104.5 192 L 102.5 182 L 104.5 169 L 102.5 160 L 104.5 141 L 109.5 138 L 120.5 140 L 130.5 138 L 134.5 134 L 138.5 143 L 144.5 150 L 146.5 165 L 146.5 177 L 144.5 188 L 138.5 194 L 138.5 198 L 146.5 198 L 152.5 194 L 154.5 188 L 157.5 182 L 159.5 173 L 159.5 165 L 161.5 160 L 161.5 153 L 161.5 148 L 161.5 144 L 157.5 143 L 154.5 138 L 152.5 132 L 154.5 128 L 159.5 134 L 163.5 140 L 165.5 148 L 169.5 153 L 169.5 160 L 173.5 163 L 177.5 167 L 181.5 173 L 184.5 182 L 184.5 190 L 184.5 198 L 190.5 200 L 194.5 198 L 194.5 190 L 195.5 186 L 190.5 172 L 188.5 165 L 188.5 157 L 186.5 148 L 181.5 143 L 177.5 134 L 181.5 126 L 182.5 119 L 184.5 111 L 182.5 99 L 182.5 93 L 177.5 86 L 170.5 78 L 161.5 74 L 148.5 69 L 138.5 69 L 126.5 74 L 117.5 76 L 113.5 74 L 111.5 67 L 109.5 64 L 104.5 58 L 102.5 52 L 98.5 49 L 93.5 45 L 89.5 43 L 86.5 39 L 80.5 35 L 80.5 30 L 80.5 26 L 75.5 26 L 72.5 30 Q 70 25.75 68.5 26 Q 67 26.25 61.5 23 L 59.5 26 L 57.5 30 L 53.5 28 L 49.5 26 L 45.5 23 L 45.5 30 L 45.5 35 L 45.5 40 L 41.5 46 L 41.5 54 Q 43 59.25 41.5 60 Q 40 60.75 37.5 67 L 32.5 74 L 29.5 82 L 32.5 89 L 37.5 93 L 43.5 94 L 49.5 91 L 57.5 86 L 64.5 82 Z " fill="rgb(255,255,255)" vector-effect="non-scaling-stroke" stroke-width="1" stroke="rgb(0,0,0)" stroke-linejoin="miter" stroke-linecap="square" stroke-miterlimit="3"/></g></svg>